<svg width="70.000000" height="70.000000" viewBox="0 0 70 70" fill="none" xmlns="http://www.w3.org/2000/svg" xmlns:xlink="http://www.w3.org/1999/xlink">
	<desc>
			Created with Pixso.
	</desc>
	<defs>
		<clipPath id="clip12_6793">
			<rect id="astronaut 1" width="70.000000" height="70.000000" fill="white" fill-opacity="0"/>
		</clipPath>
	</defs>
	<rect id="astronaut 1" width="70.000000" height="70.000000" fill="#FFFFFF" fill-opacity="0"/>
	<g clip-path="url(#clip12_6793)">
		<path id="Vector" d="M69.94 9.89C69.8 9.47 69.44 9.16 69 9.1L64.82 8.49L62.95 4.7C62.56 3.91 61.25 3.91 60.86 4.7L58.99 8.49L54.81 9.1C54.37 9.16 54 9.47 53.86 9.89C53.73 10.31 53.84 10.78 54.16 11.09L57.18 14.04L56.47 18.2C56.4 18.64 56.58 19.08 56.93 19.34C57.3 19.6 57.77 19.64 58.16 19.43L61.9 17.46L65.64 19.43C65.81 19.52 66 19.56 66.18 19.56C66.42 19.56 66.67 19.49 66.87 19.34C67.23 19.08 67.41 18.64 67.33 18.2L66.62 14.04L69.64 11.09C69.96 10.78 70.07 10.31 69.94 9.89ZM64.55 12.79C64.28 13.06 64.15 13.45 64.22 13.83L64.63 16.26L62.44 15.11C62.27 15.02 62.09 14.98 61.9 14.98C61.71 14.98 61.53 15.02 61.36 15.11L59.17 16.26L59.59 13.83C59.65 13.45 59.53 13.06 59.25 12.79L57.48 11.07L59.93 10.71C60.31 10.66 60.64 10.42 60.81 10.07L61.9 7.86L62.99 10.07C63.16 10.42 63.49 10.66 63.87 10.71L66.32 11.07L64.55 12.79Z" fill="#2196F3" fill-opacity="1.000000" fill-rule="nonzero"/>
		<path id="Vector" d="M54.83 44.89L57.16 44.89L57.16 47.22L54.83 47.22L54.83 44.89Z" fill="#2196F3" fill-opacity="1.000000" fill-rule="evenodd"/>
		<path id="Vector" d="M54.83 49.55L57.16 49.55L57.16 51.89L54.83 51.89L54.83 49.55Z" fill="#2196F3" fill-opacity="1.000000" fill-rule="evenodd"/>
		<path id="Vector" d="M57.16 47.22L59.5 47.22L59.5 49.55L57.16 49.55L57.16 47.22Z" fill="#2196F3" fill-opacity="1.000000" fill-rule="evenodd"/>
		<path id="Vector" d="M52.5 47.22L54.83 47.22L54.83 49.55L52.5 49.55L52.5 47.22Z" fill="#2196F3" fill-opacity="1.000000" fill-rule="evenodd"/>
		<path id="Vector" d="M46.66 57.72L49 57.72L49 60.05L46.66 60.05L46.66 57.72Z" fill="#2196F3" fill-opacity="1.000000" fill-rule="evenodd"/>
		<path id="Vector" d="M46.66 62.39L49 62.39L49 64.72L46.66 64.72L46.66 62.39Z" fill="#2196F3" fill-opacity="1.000000" fill-rule="evenodd"/>
		<path id="Vector" d="M49 60.05L51.33 60.05L51.33 62.39L49 62.39L49 60.05Z" fill="#2196F3" fill-opacity="1.000000" fill-rule="evenodd"/>
		<path id="Vector" d="M44.33 60.05L46.66 60.05L46.66 62.39L44.33 62.39L44.33 60.05Z" fill="#2196F3" fill-opacity="1.000000" fill-rule="evenodd"/>
		<path id="Vector" d="M32.66 53.05L35 53.05L35 55.39L32.66 55.39L32.66 53.05Z" fill="#2196F3" fill-opacity="1.000000" fill-rule="evenodd"/>
		<path id="Vector" d="M32.66 57.72L35 57.72L35 60.05L32.66 60.05L32.66 57.72Z" fill="#2196F3" fill-opacity="1.000000" fill-rule="evenodd"/>
		<path id="Vector" d="M35 55.39L37.33 55.39L37.33 57.72L35 57.72L35 55.39Z" fill="#2196F3" fill-opacity="1.000000" fill-rule="evenodd"/>
		<path id="Vector" d="M30.33 55.39L32.66 55.39L32.66 57.72L30.33 57.72L30.33 55.39Z" fill="#2196F3" fill-opacity="1.000000" fill-rule="evenodd"/>
		<path id="Vector" d="M10.49 13.39L12.83 13.39L12.83 15.72L10.49 15.72L10.49 13.39Z" fill="#2196F3" fill-opacity="1.000000" fill-rule="evenodd"/>
		<path id="Vector" d="M10.49 18.05L12.83 18.05L12.83 20.39L10.49 20.39L10.49 18.05Z" fill="#2196F3" fill-opacity="1.000000" fill-rule="evenodd"/>
		<path id="Vector" d="M12.83 15.72L15.16 15.72L15.16 18.05L12.83 18.05L12.83 15.72Z" fill="#2196F3" fill-opacity="1.000000" fill-rule="evenodd"/>
		<path id="Vector" d="M8.16 15.72L10.49 15.72L10.49 18.05L8.16 18.05L8.16 15.72Z" fill="#2196F3" fill-opacity="1.000000" fill-rule="evenodd"/>
		<path id="Vector" d="M54.06 30.97C53.43 30.12 52.51 29.57 51.46 29.43C50.41 29.28 49.37 29.55 48.53 30.2L45.79 32.3L45.79 32.3L41.64 35.4L38.67 34.21C43.96 31.84 47.67 26.54 47.67 20.39C47.67 12.03 40.84 5.22 32.44 5.22C24.04 5.22 17.21 12.03 17.21 20.39C17.21 23.42 18.12 26.24 19.66 28.61L13.62 28.56C13.61 28.56 13.61 28.56 13.6 28.56C13.59 28.56 13.57 28.57 13.55 28.57C13.44 28.57 13.32 28.6 13.21 28.64C13.19 28.65 13.16 28.65 13.13 28.67C13.12 28.67 13.1 28.67 13.09 28.68L6.02 32.17C6.01 32.17 6.01 32.17 6.01 32.17L1.87 34.16C1.83 34.18 1.78 34.21 1.73 34.24C0.08 35.34 -0.48 37.5 0.42 39.26C0.91 40.2 1.73 40.89 2.73 41.21C3.12 41.33 3.52 41.39 3.91 41.39C4.55 41.39 5.18 41.23 5.75 40.93L8.79 39.31L13.74 36.75L16.71 36.74L4.8 48.58C4.8 48.58 4.8 48.58 4.8 48.59L1.87 51.5C1.18 52.19 0.8 53.1 0.8 54.08C0.8 55.05 1.18 55.97 1.87 56.66C2.58 57.36 3.52 57.72 4.45 57.72C5.39 57.72 6.32 57.36 7.03 56.66L9.91 53.79L13.72 50.95L15.69 52.91L11.83 56.75C11.83 56.75 11.83 56.75 11.83 56.75L8.9 59.67C8.21 60.36 7.83 61.27 7.83 62.25C7.83 63.22 8.21 64.13 8.9 64.82C9.61 65.53 10.55 65.89 11.48 65.89C12.42 65.89 13.35 65.53 14.06 64.82L16.99 61.91L21.68 57.24C21.68 57.24 21.68 57.24 21.68 57.24L23.89 55.05L23.88 55.04C23.9 55.03 23.92 55.02 23.93 55.01L35.23 42.63L42.82 43.71C42.88 43.72 42.93 43.72 42.99 43.72C43.13 43.72 43.27 43.69 43.4 43.64C43.44 43.62 43.47 43.61 43.51 43.59C43.55 43.57 43.59 43.55 43.63 43.53L50.66 38.86C50.69 38.84 50.7 38.82 50.73 38.8C50.75 38.77 50.79 38.77 50.81 38.74L53.59 36.14C55.04 34.78 55.24 32.56 54.06 30.97ZM4.66 38.87C4.28 39.07 3.85 39.11 3.43 38.98C3.03 38.85 2.69 38.57 2.5 38.2C2.15 37.51 2.35 36.68 2.97 36.22L5.84 34.84L6.53 36.86L6.83 37.71L4.66 38.87ZM12.31 34.87L8.92 36.62L8.36 34.99L7.96 33.81L12.39 31.62L12.31 34.87ZM45.34 20.39C45.34 22.4 44.86 24.29 44.03 25.99L34.88 21.83C34.78 20.58 34.13 19.48 33.15 18.8L36.36 8.16C41.56 9.82 45.34 14.67 45.34 20.39ZM19.55 20.39C19.55 13.31 25.33 7.55 32.44 7.55C32.99 7.55 33.54 7.6 34.07 7.67L30.94 18.07C30.9 18.07 30.86 18.05 30.81 18.05C28.55 18.05 26.72 19.89 26.72 22.14C26.72 24.39 28.55 26.22 30.81 26.22C32.33 26.22 33.65 25.38 34.35 24.15L42.8 27.99C40.45 31.16 36.69 33.22 32.44 33.22C25.33 33.22 19.55 27.46 19.55 20.39ZM32.58 22.14C32.58 23.1 31.79 23.89 30.81 23.89C29.84 23.89 29.05 23.1 29.05 22.14C29.05 21.17 29.84 20.39 30.81 20.39C31.79 20.39 32.58 21.17 32.58 22.14ZM5.39 55C4.87 55.51 4.03 55.51 3.52 55C3.27 54.76 3.13 54.43 3.13 54.08C3.13 53.73 3.27 53.4 3.52 53.16L5.62 51.06L7.48 52.91L5.39 55ZM12.42 63.17C11.9 63.68 11.06 63.68 10.55 63.17C10.3 62.92 10.16 62.59 10.16 62.25C10.16 61.9 10.3 61.57 10.55 61.32L12.65 59.23L13.53 60.1L14.52 61.08L12.42 63.17ZM20.03 55.58C20.03 55.58 20.03 55.58 20.03 55.58L16.17 59.43L15.29 58.56L14.31 57.58L18.16 53.74C18.16 53.74 18.16 53.74 18.16 53.74C18.16 53.74 18.17 53.74 18.17 53.74C18.25 53.65 18.31 53.54 18.36 53.44C18.38 53.41 18.41 53.38 18.42 53.35C18.46 53.26 18.46 53.17 18.48 53.07C18.48 53.02 18.51 52.97 18.51 52.91C18.51 52.83 18.48 52.76 18.46 52.68C18.45 52.61 18.45 52.54 18.42 52.47C18.38 52.36 18.3 52.27 18.22 52.17C18.2 52.15 18.19 52.11 18.17 52.09C18.17 52.09 18.17 52.09 18.17 52.09C18.16 52.09 18.16 52.09 18.16 52.08L14.65 48.58C14.61 48.55 14.56 48.53 14.52 48.5C14.46 48.45 14.4 48.41 14.33 48.37C14.26 48.34 14.2 48.32 14.13 48.3C14.05 48.28 13.98 48.27 13.9 48.26C13.83 48.26 13.76 48.26 13.69 48.27C13.61 48.28 13.54 48.29 13.47 48.31C13.39 48.34 13.33 48.37 13.26 48.41C13.22 48.44 13.17 48.45 13.13 48.48L9.25 51.37L7.28 49.41L12.52 44.19L22.06 53.57L20.03 55.58ZM34.95 40.23C34.92 40.23 34.88 40.24 34.85 40.24C34.77 40.23 34.68 40.24 34.6 40.25C34.53 40.26 34.47 40.28 34.41 40.3C34.33 40.33 34.26 40.36 34.19 40.4C34.13 40.44 34.07 40.48 34.01 40.54C33.98 40.56 33.95 40.57 33.93 40.6L23.65 51.86L14.18 42.55L20.38 36.38C20.83 35.93 20.84 35.19 20.38 34.73C20.15 34.5 19.85 34.39 19.55 34.39L19.55 34.39L14.69 34.42L14.75 30.9L21.54 30.96C24.31 33.79 28.17 35.55 32.44 35.55C33.4 35.55 34.33 35.45 35.24 35.29C35.33 35.36 35.41 35.43 35.52 35.47L40.79 37.57L41.13 39.23L41.52 41.17L34.95 40.23ZM43.79 40.62L43.1 37.21L46.27 34.85L47.1 35.95L48.34 37.6L43.79 40.62ZM52 34.43L50.17 36.15L48.13 33.44L49.95 32.05C50.29 31.79 50.72 31.68 51.14 31.74C51.56 31.79 51.93 32.02 52.19 32.36C52.66 33 52.58 33.89 52 34.43Z" fill="#212121" fill-opacity="1.000000" fill-rule="nonzero"/>
		<path id="Vector" d="M29.75 40.56L25.06 35.89C24.61 35.44 23.87 35.44 23.42 35.89L18.73 40.56C18.51 40.78 18.39 41.08 18.39 41.39C18.39 41.7 18.51 42 18.73 42.21L23.42 46.88C23.64 47.11 23.94 47.22 24.24 47.22C24.54 47.22 24.84 47.11 25.06 46.88L29.75 42.21C29.97 42 30.09 41.7 30.09 41.39C30.09 41.08 29.97 40.78 29.75 40.56ZM24.24 44.41L21.21 41.39L24.24 38.37L27.27 41.39L24.24 44.41Z" fill="#212121" fill-opacity="1.000000" fill-rule="nonzero"/>
		<path id="Vector" d="M37.54 11.09L36.98 13.35C37.13 13.39 40.78 14.34 40.78 18.05L43.11 18.05C43.11 13.64 39.47 11.57 37.54 11.09Z" fill="#212121" fill-opacity="1.000000" fill-rule="nonzero"/>
		<path id="Vector" d="M40.78 20.39L43.11 20.39L43.11 22.72L40.78 22.72L40.78 20.39Z" fill="#212121" fill-opacity="1.000000" fill-rule="evenodd"/>
	</g>
</svg>
