<svg width="63.000000" height="46.000000" viewBox="0 0 63 46" fill="none" xmlns="http://www.w3.org/2000/svg" xmlns:xlink="http://www.w3.org/1999/xlink">
	<desc>
			Created with Pixso.
	</desc>
	<defs/>
	<path id="Vector" d="M4.75 37.73C5 38.01 5.13 38.35 5.12 38.71C5.13 38.94 5.09 39.17 4.99 39.38C4.89 39.6 4.74 39.79 4.55 39.94C4.08 40.27 3.49 40.43 2.9 40.39L0 40.39L0 34.2L2.84 34.2C3.4 34.17 3.96 34.31 4.41 34.61C4.6 34.75 4.74 34.93 4.84 35.13C4.94 35.33 4.98 35.55 4.97 35.77C4.98 36.11 4.87 36.45 4.64 36.72C4.42 36.96 4.11 37.13 3.77 37.2C4.16 37.27 4.5 37.45 4.75 37.73ZM1.35 36.8L2.56 36.8C2.84 36.81 3.11 36.74 3.33 36.59C3.43 36.51 3.5 36.42 3.54 36.32C3.59 36.21 3.61 36.1 3.6 35.98C3.6 35.87 3.59 35.76 3.54 35.66C3.5 35.55 3.43 35.46 3.34 35.38C3.11 35.22 2.83 35.15 2.54 35.17L1.35 35.17L1.35 36.8ZM3.45 39.17C3.55 39.09 3.63 39 3.68 38.89C3.73 38.78 3.75 38.66 3.74 38.54C3.75 38.42 3.73 38.3 3.67 38.19C3.62 38.08 3.55 37.98 3.45 37.91C3.21 37.74 2.92 37.66 2.62 37.68L1.35 37.68L1.35 39.38L2.64 39.38C2.93 39.4 3.22 39.32 3.45 39.17Z" fill="#AFB1B8" fill-opacity="1.000000" fill-rule="nonzero"/>
	<path id="Vector" d="M10.57 40.39L8.98 37.97L8.39 37.97L8.39 40.39L7.03 40.39L7.03 34.2L9.6 34.2C10.25 34.16 10.9 34.35 11.4 34.73C11.76 35.06 11.98 35.51 12.01 35.98C12.05 36.45 11.9 36.91 11.59 37.29C11.27 37.62 10.84 37.84 10.36 37.92L12.05 40.39L10.57 40.39ZM8.39 37.13L9.5 37.13C10.28 37.13 10.66 36.82 10.66 36.19C10.67 36.06 10.65 35.94 10.6 35.82C10.55 35.7 10.48 35.59 10.38 35.49C10.13 35.31 9.82 35.22 9.5 35.24L8.38 35.24L8.39 37.13Z" fill="#AFB1B8" fill-opacity="1.000000" fill-rule="nonzero"/>
	<path id="Vector" d="M18.01 39.15L15.29 39.15L14.81 40.39L13.39 40.39L15.88 34.27L17.42 34.27L19.9 40.39L18.47 40.39L18.01 39.15ZM17.64 38.21L16.65 35.59L15.66 38.21L17.64 38.21Z" fill="#AFB1B8" fill-opacity="1.000000" fill-rule="nonzero"/>
	<path id="Vector" d="M27.32 40.39L25.97 40.39L22.94 36.18L22.94 40.39L21.59 40.39L21.59 34.2L22.94 34.2L25.97 38.43L25.97 34.2L27.32 34.2L27.32 40.39Z" fill="#AFB1B8" fill-opacity="1.000000" fill-rule="nonzero"/>
	<path id="Vector" d="M35.03 38.91C34.75 39.38 34.32 39.76 33.81 40C33.22 40.27 32.56 40.41 31.91 40.39L29.5 40.39L29.5 34.2L31.91 34.2C32.56 34.18 33.22 34.32 33.81 34.58C34.32 34.82 34.75 35.2 35.03 35.66C35.31 36.16 35.45 36.72 35.45 37.29C35.45 37.85 35.31 38.41 35.03 38.91ZM33.48 38.76C33.87 38.35 34.08 37.83 34.08 37.28C34.08 36.74 33.87 36.22 33.48 35.81C33.02 35.43 32.41 35.24 31.79 35.28L30.85 35.28L30.85 39.29L31.79 39.29C32.41 39.32 33.02 39.13 33.48 38.76Z" fill="#AFB1B8" fill-opacity="1.000000" fill-rule="nonzero"/>
	<path id="Vector" d="M18.85 -0.24C18.85 -0.24 36.29 5.79 35.92 14.51L35.92 29.27C35.92 29.27 18.49 23.24 18.86 14.51L18.85 -0.24Z" fill="#AFB1B8" fill-opacity="1.000000" fill-rule="nonzero"/>
	<path id="Vector" d="M51.46 25.81C54.75 23.74 58.56 22.45 62.53 22.07L62.53 17.46C57.95 19.07 54.07 22 51.46 25.81Z" fill="#AFB1B8" fill-opacity="1.000000" fill-rule="nonzero"/>
	<path id="Vector" d="M49.48 27.2C52.17 22.23 56.85 18.4 62.54 16.49L62.54 3.18C62.54 3.18 37.7 11.77 38.23 24.19L38.23 45.2C38.23 45.2 39.33 44.81 41.07 44.09C41.07 43.42 41.07 42.74 41.15 42.06C41.67 36.29 44.66 30.95 49.48 27.2Z" fill="#AFB1B8" fill-opacity="1.000000" fill-rule="nonzero"/>
	<path id="Vector" d="M47.11 35.01C47.25 33.55 47.54 32.11 47.98 30.71C44.98 33.94 43.17 37.96 42.79 42.19C42.75 42.58 42.73 42.98 42.72 43.4C44.14 42.78 45.78 42 47.5 41.09C47.06 39.09 46.93 37.04 47.11 35.01Z" fill="#AFB1B8" fill-opacity="1.000000" fill-rule="nonzero"/>
	<path id="Vector" d="M48.1 35.08C47.94 36.92 48.04 38.78 48.41 40.59C55.19 36.87 62.82 31.13 62.53 24.19L62.53 23.58C57.68 24.08 53.14 26.02 49.62 29.11C48.79 31.02 48.28 33.03 48.1 35.08Z" fill="#AFB1B8" fill-opacity="1.000000" fill-rule="nonzero"/>
</svg>
