<svg width="44.000000" height="41.000000" viewBox="0 0 44 41" fill="none" xmlns="http://www.w3.org/2000/svg" xmlns:xlink="http://www.w3.org/1999/xlink">
	<desc>
			Created with Pixso.
	</desc>
	<defs/>
	<path id="Vector" d="M6.4 40.1C6.42 40.1 6.43 40.1 6.45 40.11C6.46 40.11 6.47 40.12 6.49 40.13L6.7 40.34C6.53 40.51 6.33 40.64 6.09 40.73C5.82 40.83 5.52 40.88 5.22 40.88C4.94 40.88 4.66 40.84 4.4 40.74C4.17 40.66 3.96 40.53 3.79 40.37C3.61 40.2 3.48 40 3.39 39.79C3.29 39.55 3.25 39.3 3.25 39.05C3.25 38.8 3.3 38.54 3.4 38.31C3.49 38.09 3.64 37.89 3.82 37.73C4.01 37.56 4.23 37.44 4.48 37.35C4.74 37.26 5.03 37.22 5.32 37.22C5.59 37.21 5.85 37.25 6.1 37.34C6.32 37.42 6.52 37.53 6.69 37.67L6.5 37.9C6.49 37.91 6.48 37.92 6.46 37.94C6.44 37.95 6.41 37.95 6.38 37.95C6.36 37.95 6.33 37.94 6.31 37.93L6.21 37.87L6.07 37.79C6.01 37.77 5.95 37.74 5.89 37.72C5.81 37.7 5.72 37.68 5.64 37.66C5.53 37.64 5.42 37.64 5.32 37.64C5.11 37.64 4.9 37.67 4.71 37.74C4.53 37.8 4.37 37.9 4.24 38.02C4.1 38.15 4 38.3 3.93 38.46C3.85 38.65 3.81 38.85 3.82 39.05C3.81 39.25 3.85 39.45 3.93 39.65C3.99 39.81 4.1 39.96 4.23 40.09C4.36 40.21 4.51 40.3 4.68 40.36C4.86 40.43 5.05 40.46 5.25 40.46C5.36 40.46 5.47 40.45 5.58 40.44C5.76 40.42 5.93 40.37 6.08 40.28C6.16 40.24 6.23 40.19 6.3 40.13C6.33 40.11 6.36 40.1 6.4 40.1Z" fill="#AFB1B8" fill-opacity="1.000000" fill-rule="nonzero"/>
	<path id="Vector" d="M12.7 39.05C12.7 39.3 12.65 39.55 12.55 39.79C12.46 40 12.32 40.19 12.14 40.36C11.96 40.52 11.74 40.65 11.5 40.73C10.96 40.91 10.37 40.91 9.84 40.73C9.6 40.65 9.38 40.52 9.2 40.36C9.02 40.19 8.88 39.99 8.78 39.78C8.59 39.3 8.59 38.78 8.78 38.3C8.88 38.09 9.02 37.89 9.2 37.72C9.38 37.56 9.6 37.44 9.84 37.36C10.37 37.18 10.96 37.18 11.5 37.36C11.74 37.45 11.96 37.57 12.14 37.74C12.32 37.9 12.46 38.09 12.55 38.31C12.65 38.54 12.7 38.8 12.7 39.05ZM12.13 39.05C12.13 38.85 12.1 38.65 12.02 38.46C11.96 38.29 11.86 38.14 11.73 38.01C11.6 37.89 11.45 37.8 11.27 37.73C10.88 37.6 10.45 37.6 10.07 37.73C9.89 37.8 9.73 37.89 9.6 38.01C9.47 38.14 9.37 38.29 9.31 38.46C9.17 38.84 9.17 39.26 9.31 39.64C9.37 39.8 9.47 39.96 9.6 40.08C9.73 40.21 9.89 40.3 10.07 40.36C10.45 40.49 10.88 40.49 11.27 40.36C11.45 40.3 11.6 40.21 11.73 40.08C11.86 39.96 11.96 39.8 12.02 39.64C12.1 39.45 12.13 39.25 12.13 39.05Z" fill="#AFB1B8" fill-opacity="1.000000" fill-rule="nonzero"/>
	<path id="Vector" d="M17 39.67L17.05 39.8C17.08 39.76 17.09 39.71 17.12 39.67C17.14 39.63 17.16 39.58 17.19 39.54L18.58 37.34C18.61 37.3 18.63 37.28 18.66 37.27C18.7 37.26 18.74 37.26 18.77 37.26L19.19 37.26L19.19 40.84L18.7 40.84L18.7 38.21C18.7 38.17 18.7 38.13 18.7 38.09C18.69 38.05 18.69 38.01 18.7 37.97L17.3 40.2C17.28 40.24 17.25 40.26 17.21 40.28C17.18 40.3 17.14 40.31 17.09 40.31L17.02 40.31C16.97 40.31 16.93 40.3 16.9 40.28C16.86 40.26 16.83 40.24 16.81 40.2L15.37 37.96C15.37 38 15.37 38.04 15.37 38.09C15.37 38.13 15.37 38.17 15.37 38.2L15.37 40.83L14.9 40.83L14.9 37.26L15.31 37.26C15.35 37.26 15.39 37.26 15.43 37.27C15.46 37.28 15.49 37.31 15.5 37.34L16.93 39.54C16.95 39.58 16.98 39.63 17 39.67Z" fill="#AFB1B8" fill-opacity="1.000000" fill-rule="nonzero"/>
	<path id="Vector" d="M22.24 39.49L22.24 40.83L21.69 40.83L21.69 37.26L22.91 37.26C23.14 37.25 23.37 37.28 23.59 37.34C23.77 37.38 23.93 37.46 24.07 37.56C24.19 37.66 24.28 37.78 24.34 37.91C24.41 38.06 24.44 38.21 24.43 38.37C24.44 38.52 24.4 38.68 24.33 38.82C24.27 38.96 24.17 39.08 24.04 39.18C23.9 39.29 23.73 39.37 23.56 39.42C23.34 39.48 23.12 39.51 22.9 39.5L22.24 39.49ZM22.24 39.11L22.9 39.11C23.04 39.11 23.19 39.09 23.32 39.05C23.43 39.02 23.54 38.97 23.63 38.9C23.71 38.83 23.77 38.75 23.81 38.66C23.86 38.57 23.88 38.47 23.88 38.36C23.88 38.26 23.87 38.16 23.82 38.07C23.78 37.98 23.72 37.9 23.63 37.83C23.42 37.69 23.16 37.62 22.9 37.63L22.24 37.63L22.24 39.11Z" fill="#AFB1B8" fill-opacity="1.000000" fill-rule="nonzero"/>
	<path id="Vector" d="M29.57 40.84L29.14 40.84C29.09 40.84 29.05 40.83 29.02 40.8C28.99 40.78 28.96 40.75 28.95 40.72L28.58 39.86L26.71 39.86L26.33 40.72C26.31 40.75 26.29 40.78 26.26 40.8C26.23 40.83 26.18 40.84 26.14 40.84L25.71 40.84L27.34 37.26L27.91 37.26L29.57 40.84ZM26.87 39.51L28.41 39.51L27.76 38.05C27.71 37.94 27.67 37.83 27.64 37.72L27.57 37.9C27.55 37.96 27.53 38.01 27.51 38.05L26.87 39.51Z" fill="#AFB1B8" fill-opacity="1.000000" fill-rule="nonzero"/>
	<path id="Vector" d="M31.92 37.27C31.96 37.29 31.98 37.31 32.01 37.34L34.39 40.04C34.39 39.99 34.39 39.95 34.39 39.91C34.39 39.87 34.39 39.83 34.39 39.79L34.39 37.26L34.88 37.26L34.88 40.84L34.61 40.84C34.57 40.84 34.53 40.83 34.49 40.82C34.46 40.8 34.43 40.78 34.41 40.75L32.02 38.05C32.03 38.09 32.03 38.14 32.02 38.18C32.02 38.22 32.02 38.25 32.02 38.29L32.02 40.84L31.54 40.84L31.54 37.26L31.83 37.26C31.86 37.26 31.89 37.26 31.92 37.27Z" fill="#AFB1B8" fill-opacity="1.000000" fill-rule="nonzero"/>
	<path id="Vector" d="M38.9 39.41L38.9 40.84L38.35 40.84L38.35 39.41L36.84 37.26L37.33 37.26C37.38 37.26 37.42 37.27 37.45 37.29C37.48 37.31 37.5 37.34 37.52 37.37L38.47 38.76C38.51 38.82 38.54 38.87 38.57 38.93C38.59 38.98 38.61 39.03 38.63 39.08L38.7 38.92C38.73 38.87 38.76 38.81 38.8 38.76L39.73 37.36C39.75 37.33 39.77 37.31 39.8 37.28C39.83 37.26 39.87 37.25 39.91 37.25L40.41 37.25L38.9 39.41Z" fill="#AFB1B8" fill-opacity="1.000000" fill-rule="nonzero"/>
	<path id="Vector" d="M16.73 31.25C16.96 31.28 17.2 31.3 17.45 31.32C21.13 29.89 24.24 27.55 26.39 24.59C28.55 21.63 29.66 18.19 29.57 14.69L25.52 11.16C26.34 14.89 25.96 18.74 24.4 22.29C22.85 25.84 20.19 28.94 16.73 31.25Z" fill="#AFB1B8" fill-opacity="1.000000" fill-rule="nonzero"/>
	<path id="Vector" d="M15.28 31.09L15.39 31.11C19.09 28.8 21.92 25.59 23.49 21.88C25.07 18.17 25.33 14.13 24.24 10.29L18.47 5.27C20.8 9.4 21.74 14.01 21.18 18.58C20.62 23.15 18.57 27.49 15.28 31.09Z" fill="#AFB1B8" fill-opacity="1.000000" fill-rule="nonzero"/>
	<path id="Vector" d="M34.86 18.82C33.88 22.67 31.5 26.14 28.07 28.71C27.07 29.47 25.99 30.14 24.84 30.73C27.63 30.01 30.2 28.75 32.35 27.04C34.49 25.33 36.15 23.21 37.2 20.85L34.86 18.82Z" fill="#AFB1B8" fill-opacity="1.000000" fill-rule="nonzero"/>
	<path id="Vector" d="M33.94 18.26L30.61 15.36C30.55 18.66 29.47 21.89 27.48 24.71C25.49 27.52 22.68 29.83 19.32 31.38L19.34 31.38C20.08 31.38 20.83 31.34 21.57 31.26C24.71 30.15 27.48 28.38 29.64 26.11C31.8 23.84 33.28 21.14 33.94 18.26Z" fill="#AFB1B8" fill-opacity="1.000000" fill-rule="nonzero"/>
	<path id="Vector" d="M15.76 3.16L11.78 -0.31C8.23 0.89 5.17 2.99 3.01 5.72C0.85 8.45 -0.31 11.68 -0.33 14.99L-0.33 14.99C-0.31 18.65 1.11 22.2 3.7 25.08C6.3 27.97 9.93 30.01 14.02 30.9C17.67 27.04 19.8 22.26 20.12 17.27C20.43 12.29 18.9 7.34 15.76 3.16Z" fill="#AFB1B8" fill-opacity="1.000000" fill-rule="nonzero"/>
	<path id="Vector" d="M43.14 17.72C43.12 13.38 41.13 9.22 37.59 6.15C34.06 3.08 29.27 1.35 24.27 1.33C21.96 1.33 19.67 1.7 17.52 2.43L41.88 23.59C42.71 21.72 43.14 19.73 43.14 17.72Z" fill="#AFB1B8" fill-opacity="1.000000" fill-rule="nonzero"/>
</svg>
