<svg width="85.000000" height="41.000000" viewBox="0 0 85 41" fill="none" xmlns="http://www.w3.org/2000/svg" xmlns:xlink="http://www.w3.org/1999/xlink">
	<desc>
			Created with Pixso.
	</desc>
	<defs/>
	<path id="Vector" d="M13.14 12.1L13.14 12.1C15.54 12.1 17.48 13.83 17.48 15.96L17.48 15.96C17.48 18.09 15.54 19.82 13.14 19.82L13.14 19.82C10.74 19.82 8.8 18.09 8.8 15.96L8.8 15.96C8.8 13.83 10.74 12.1 13.14 12.1Z" fill="#AFB1B8" fill-opacity="1.000000" fill-rule="evenodd"/>
	<path id="Vector" d="M45.19 10.86C45.18 7.9 43.86 5.07 41.5 2.97C39.15 0.88 35.96 -0.3 32.62 -0.31L32.62 -0.31C29.29 -0.3 26.1 0.88 23.74 2.97C21.39 5.07 20.06 7.9 20.05 10.86L20.05 27.19C20.05 27.19 45.19 24.7 45.19 10.87L45.19 10.86Z" fill="#AFB1B8" fill-opacity="1.000000" fill-rule="nonzero"/>
	<path id="Vector" d="M0 32.54C0 34.6 0.92 36.58 2.56 38.03C4.2 39.49 6.42 40.31 8.74 40.32C11.06 40.31 13.28 39.49 14.91 38.04C16.55 36.58 17.48 34.61 17.48 32.55L17.48 21.19C17.48 21.19 0 22.92 0 32.54ZM8.74 34.58C8.29 34.58 7.84 34.46 7.47 34.24C7.09 34.01 6.8 33.7 6.62 33.32C6.45 32.95 6.41 32.54 6.49 32.15C6.58 31.75 6.8 31.39 7.12 31.11C7.44 30.82 7.85 30.63 8.29 30.55C8.74 30.47 9.2 30.51 9.62 30.66C10.03 30.82 10.39 31.08 10.64 31.41C10.89 31.75 11.03 32.14 11.03 32.54C11.03 32.81 10.97 33.08 10.86 33.33C10.74 33.57 10.57 33.8 10.36 33.99C10.15 34.18 9.9 34.33 9.62 34.43C9.34 34.53 9.04 34.59 8.74 34.59L8.74 34.58Z" fill="#AFB1B8" fill-opacity="1.000000" fill-rule="nonzero"/>
	<path id="FOSTER PETERS" d="M30.41 34.27Q30.64 33.8 30.64 33.17L30.64 32.98Q30.64 32.35 30.41 31.87Q30.24 31.51 29.96 31.27Q29.87 31.2 29.77 31.13Q29.68 31.08 29.59 31.04Q29.24 30.88 28.82 30.88Q28.4 30.88 28.05 31.04Q27.96 31.08 27.87 31.13Q27.77 31.2 27.68 31.27Q27.4 31.51 27.23 31.87Q27 32.35 27 32.98L27 33.19Q27.01 33.8 27.24 34.28Q27.4 34.62 27.67 34.85Q27.77 34.94 27.88 35.01Q27.97 35.06 28.07 35.11Q28.42 35.26 28.83 35.26Q29.26 35.26 29.61 35.09Q29.7 35.05 29.78 35Q29.89 34.93 30 34.84Q30.25 34.61 30.41 34.27ZM33.41 33.81Q33.49 33.92 33.49 34.08Q33.49 34.21 33.43 34.31Q33.39 34.38 33.31 34.44Q33.14 34.57 32.82 34.57Q32.33 34.57 32.12 34.32Q31.98 34.15 31.98 33.86L31.1 33.86Q31.1 34.17 31.22 34.42Q31.26 34.51 31.31 34.59Q31.31 34.59 31.32 34.6Q31.53 34.9 31.93 35.08Q32.33 35.26 32.82 35.26Q33.53 35.26 33.95 34.95Q34.13 34.81 34.23 34.63Q34.37 34.39 34.37 34.08Q34.37 33.8 34.26 33.57Q34.18 33.39 34.03 33.25Q33.68 32.91 32.93 32.69Q32.53 32.56 32.32 32.42Q32.17 32.32 32.13 32.19Q32.11 32.13 32.11 32.07Q32.11 31.96 32.15 31.88Q32.2 31.78 32.29 31.71Q32.47 31.58 32.79 31.58Q33.12 31.58 33.31 31.74Q33.35 31.78 33.39 31.83Q33.49 31.98 33.49 32.2L34.37 32.2Q34.37 31.93 34.28 31.71Q34.23 31.61 34.17 31.51Q34.13 31.45 34.08 31.39Q33.9 31.17 33.62 31.04Q33.26 30.88 32.8 30.88Q32.35 30.88 31.98 31.03Q31.62 31.18 31.42 31.45Q31.34 31.56 31.3 31.69Q31.23 31.87 31.23 32.07Q31.23 32.27 31.29 32.45Q31.45 32.85 31.96 33.13Q32.22 33.27 32.68 33.42Q33.14 33.57 33.31 33.7Q33.37 33.75 33.41 33.81ZM67.73 33.81Q67.81 33.92 67.81 34.08Q67.81 34.21 67.75 34.31Q67.71 34.38 67.63 34.44Q67.45 34.57 67.14 34.57Q66.65 34.57 66.44 34.32Q66.3 34.15 66.3 33.86L65.42 33.86Q65.42 34.17 65.53 34.42Q65.57 34.51 65.63 34.59Q65.63 34.59 65.64 34.6Q65.85 34.9 66.24 35.08Q66.65 35.26 67.14 35.26Q67.85 35.26 68.27 34.95Q68.45 34.81 68.55 34.63Q68.69 34.39 68.69 34.08Q68.69 33.8 68.58 33.57Q68.49 33.39 68.35 33.25Q68 32.91 67.25 32.69Q66.85 32.56 66.64 32.42Q66.49 32.32 66.44 32.19Q66.43 32.13 66.43 32.07Q66.43 31.96 66.47 31.88Q66.51 31.78 66.61 31.71Q66.78 31.58 67.11 31.58Q67.44 31.58 67.62 31.74Q67.67 31.78 67.71 31.83Q67.81 31.98 67.81 32.2L68.69 32.2Q68.69 31.93 68.59 31.71Q68.55 31.61 68.49 31.51Q68.45 31.45 68.4 31.39Q68.22 31.17 67.94 31.04Q67.58 30.88 67.12 30.88Q66.67 30.88 66.3 31.03Q65.94 31.18 65.74 31.45Q65.66 31.56 65.62 31.69Q65.55 31.87 65.55 32.07Q65.55 32.27 65.61 32.45Q65.77 32.85 66.27 33.13Q66.54 33.27 67 33.42Q67.45 33.57 67.63 33.7Q67.69 33.75 67.73 33.81ZM24.73 33.46L26.41 33.46L26.41 32.75L24.73 32.75L24.73 31.65L26.62 31.65L26.62 30.94L23.85 30.94L23.85 35.2L24.73 35.2L24.73 33.46ZM36.87 31.65L38.18 31.65L38.18 30.94L34.7 30.94L34.7 31.65L35.99 31.65L35.99 35.2L36.87 35.2L36.87 31.65ZM39.56 33.35L41.24 33.35L41.24 32.66L39.56 32.66L39.56 31.65L41.53 31.65L41.53 30.94L38.68 30.94L38.68 35.2L41.54 35.2L41.54 34.5L39.56 34.5L39.56 33.35ZM42.93 33.64L43.63 33.64L44.43 35.2L45.37 35.2L45.37 35.16L44.45 33.42Q44.83 33.25 45.02 32.95Q45.21 32.66 45.21 32.23Q45.21 31.8 45.01 31.5Q44.93 31.38 44.8 31.27Q44.39 30.94 43.64 30.94L42.05 30.94L42.05 35.2L42.93 35.2L42.93 33.64ZM48.25 35.2L48.25 33.7L49.02 33.7Q49.78 33.7 50.21 33.34Q50.36 33.21 50.46 33.05Q50.64 32.76 50.64 32.35Q50.64 32.02 50.52 31.75Q50.49 31.68 50.45 31.61Q50.39 31.52 50.31 31.43Q50.14 31.24 49.88 31.11Q49.52 30.94 49.04 30.94L47.37 30.94L47.37 35.2L48.25 35.2ZM52.12 33.35L53.81 33.35L53.81 32.66L52.12 32.66L52.12 31.65L54.1 31.65L54.1 30.94L51.24 30.94L51.24 35.2L54.1 35.2L54.1 34.5L52.12 34.5L52.12 33.35ZM56.58 31.65L57.89 31.65L57.89 30.94L54.41 30.94L54.41 31.65L55.7 31.65L55.7 35.2L56.58 35.2L56.58 31.65ZM59.27 33.35L60.96 33.35L60.96 32.66L59.27 32.66L59.27 31.65L61.24 31.65L61.24 30.94L58.39 30.94L58.39 35.2L61.25 35.2L61.25 34.5L59.27 34.5L59.27 33.35ZM62.64 33.64L63.34 33.64L64.14 35.2L65.09 35.2L65.09 35.16L64.16 33.42Q64.55 33.25 64.74 32.95Q64.93 32.66 64.93 32.23Q64.93 31.8 64.73 31.5Q64.64 31.38 64.52 31.27Q64.11 30.94 63.35 30.94L61.77 30.94L61.77 35.2L62.64 35.2L62.64 33.64ZM29.51 31.95Q29.75 32.3 29.75 32.97L29.75 33.18Q29.74 33.85 29.51 34.19Q29.4 34.35 29.26 34.43Q29.07 34.54 28.83 34.54Q28.58 34.54 28.4 34.43Q28.24 34.34 28.14 34.18Q27.9 33.82 27.9 33.17L27.9 32.96Q27.9 32.29 28.14 31.95Q28.24 31.8 28.39 31.71Q28.57 31.6 28.82 31.6Q29.07 31.6 29.25 31.71Q29.4 31.8 29.51 31.95ZM43.64 32.93L42.93 32.93L42.93 31.65L43.64 31.65Q43.99 31.65 44.16 31.82Q44.19 31.85 44.21 31.88Q44.33 32.04 44.33 32.3Q44.33 32.52 44.23 32.67Q44.19 32.72 44.15 32.76Q44.15 32.76 44.14 32.77Q43.96 32.93 43.64 32.93ZM49.04 32.99L48.25 32.99L48.25 31.65L49.06 31.65Q49.32 31.65 49.49 31.78Q49.53 31.81 49.57 31.85Q49.61 31.89 49.64 31.94Q49.75 32.11 49.75 32.35Q49.75 32.6 49.64 32.75Q49.61 32.79 49.57 32.82Q49.39 32.99 49.04 32.99ZM63.35 32.93L62.64 32.93L62.64 31.65L63.35 31.65Q63.7 31.65 63.88 31.82Q63.9 31.85 63.92 31.88Q64.05 32.04 64.05 32.3Q64.05 32.52 63.94 32.67Q63.91 32.72 63.87 32.76Q63.86 32.76 63.86 32.77Q63.68 32.93 63.35 32.93Z" fill="#AFB1B8" fill-opacity="1.000000" fill-rule="evenodd"/>
</svg>
