<svg width="65.000000" height="70.000000" viewBox="0 0 65 70" fill="none" xmlns="http://www.w3.org/2000/svg" xmlns:xlink="http://www.w3.org/1999/xlink">
	<desc>
			Created with Pixso.
	</desc>
	<defs/>
	<path id="Vector" d="M64.31 48.33L45.84 29.73L47.89 19.63C48.42 19.84 48.98 19.95 49.55 19.95L49.56 19.95C52.17 19.98 54.31 17.89 54.34 15.28C54.37 12.68 52.28 10.54 49.68 10.51C47.07 10.48 44.93 12.56 44.9 15.17C44.89 15.73 44.98 16.29 45.17 16.81L34.32 18.14L16.62 0.34C16.41 0.12 16.11 0 15.8 0C15.49 0 15.2 0.12 14.98 0.33L11.67 3.62C11.22 4.08 11.22 4.82 11.67 5.27L13.45 7.08C6.56 19.76 8.8 35.47 18.97 45.72C19.06 45.81 19.17 45.88 19.28 45.93C19.21 46.33 19.17 46.73 19.17 47.13L19.17 60.66L5.17 60.66C1.95 60.67 -0.66 63.28 -0.66 66.5L-0.66 68.83C-0.66 69.47 -0.14 70 0.5 70L54.17 70C54.81 70 55.34 69.47 55.34 68.83L55.34 66.5C55.33 63.28 52.72 60.67 49.5 60.66L35.5 60.66L35.5 54.66C37.7 55.12 39.93 55.36 42.17 55.36C47.55 55.36 52.84 54.02 57.57 51.46L59.36 53.26C59.58 53.48 59.88 53.61 60.19 53.61C60.49 53.61 60.79 53.49 61 53.27L64.31 49.98C64.77 49.53 64.77 48.79 64.31 48.33ZM47.92 13.63C48.83 12.72 50.31 12.73 51.22 13.64C52.13 14.55 52.12 16.03 51.21 16.94C50.77 17.37 50.18 17.62 49.56 17.62L49.56 17.62C48.27 17.61 47.23 16.56 47.24 15.27C47.24 14.66 47.49 14.06 47.92 13.63L47.92 13.63ZM45.17 21.3L43.86 27.74L41.29 25.15L45.17 21.3ZM43.85 19.32L39.65 23.5L36.4 20.23L43.85 19.32ZM49.5 63C51.44 63 53 64.56 53 66.5L53 67.66L1.67 67.66L1.67 66.5C1.67 64.56 3.24 63 5.17 63L49.5 63ZM33.17 58.33L33.17 60.66L21.5 60.66L21.5 58.33L33.17 58.33ZM21.5 56L21.5 47.13C21.5 44.3 24.12 42 27.34 42C30.55 42 33.17 44.3 33.17 47.13L33.17 56L21.5 56ZM35.5 52.29L35.5 47.13C35.5 43.01 31.84 39.66 27.34 39.66C24.43 39.62 21.7 41.1 20.16 43.57C11.28 34.22 9.28 20.28 15.18 8.82L55.87 49.74C49.58 52.94 42.38 53.84 35.5 52.29ZM60.2 50.79L58.55 49.14L15.79 6.11L14.14 4.46L15.79 2.81L33.14 20.27C33.15 20.27 33.16 20.28 33.17 20.29L61.85 49.14L60.2 50.79Z" fill="#212121" fill-opacity="1.000000" fill-rule="nonzero"/>
	<path id="Vector" d="M27.35 44.33L27.34 44.33C25.4 44.33 23.83 45.89 23.83 47.82C23.83 49.76 25.39 51.33 27.33 51.33L27.34 51.33C29.27 51.33 30.84 49.77 30.84 47.83C30.85 45.9 29.28 44.33 27.35 44.33ZM28.16 48.66C27.94 48.87 27.65 49 27.34 49C26.69 48.99 26.17 48.47 26.18 47.82C26.18 47.51 26.3 47.22 26.52 47C26.74 46.79 27.03 46.66 27.34 46.66C27.98 46.67 28.5 47.19 28.5 47.83C28.5 48.14 28.37 48.44 28.15 48.66L28.16 48.66Z" fill="#2196F3" fill-opacity="1.000000" fill-rule="nonzero"/>
</svg>
