<svg width="20.000000" height="20.000000" viewBox="0 0 20 20" fill="none" xmlns="http://www.w3.org/2000/svg" xmlns:xlink="http://www.w3.org/1999/xlink">
	<desc>
			Created with Pixso.
	</desc>
	<defs>
		<clipPath id="clip13_16">
			<rect id="linkedin 1" width="20.000000" height="20.000000" fill="white" fill-opacity="0"/>
		</clipPath>
	</defs>
	<rect id="linkedin 1" width="20.000000" height="20.000000" fill="#FFFFFF" fill-opacity="0"/>
	<g clip-path="url(#clip13_16)">
		<path id="Vector" d="M19.99 20L19.99 19.99L20 19.99L20 12.66C20 9.07 19.22 6.31 15.03 6.31C13.01 6.31 11.66 7.41 11.11 8.46L11.05 8.46L11.05 6.64L7.07 6.64L7.07 19.99L11.21 19.99L11.21 13.38C11.21 11.64 11.54 9.96 13.7 9.96C15.82 9.96 15.85 11.95 15.85 13.49L15.85 20L19.99 20Z" fill="#AFB1B8" fill-opacity="1.000000" fill-rule="nonzero"/>
		<path id="Vector" d="M0.33 6.64L4.47 6.64L4.47 19.99L0.33 19.99L0.33 6.64Z" fill="#AFB1B8" fill-opacity="1.000000" fill-rule="nonzero"/>
		<path id="Vector" d="M2.4 0C1.07 0 0 1.07 0 2.4C0 3.72 1.07 4.82 2.4 4.82C3.72 4.82 4.8 3.72 4.8 2.4C4.8 1.07 3.72 0 2.4 0L2.4 0Z" fill="#AFB1B8" fill-opacity="1.000000" fill-rule="nonzero"/>
	</g>
</svg>
