<svg width="94.000000" height="44.000000" viewBox="0 0 94 44" fill="none" xmlns="http://www.w3.org/2000/svg" xmlns:xlink="http://www.w3.org/1999/xlink">
	<desc>
			Created with Pixso.
	</desc>
	<defs/>
	<path id="Vector" d="M47.42 20.4C46.98 19.81 46.76 19.12 46.82 18.41L46.82 15.53C46.82 14.65 47.02 13.98 47.42 13.52C47.82 13.06 48.51 12.83 49.48 12.83C50.4 12.83 51.05 13.03 51.44 13.42C51.86 13.92 52.06 14.53 52.01 15.14L52.01 15.82L50.37 15.82L50.37 15.13C50.38 14.91 50.36 14.68 50.32 14.46C50.3 14.31 50.22 14.17 50.09 14.06C49.92 13.95 49.71 13.89 49.5 13.91C49.27 13.89 49.05 13.95 48.87 14.07C48.73 14.19 48.63 14.34 48.6 14.51C48.55 14.75 48.53 14.98 48.53 15.22L48.53 18.72C48.51 19.06 48.58 19.4 48.74 19.71C48.83 19.81 48.94 19.89 49.07 19.94C49.2 19.99 49.35 20.01 49.5 20C49.71 20.01 49.91 19.96 50.08 19.84C50.21 19.73 50.3 19.58 50.32 19.41C50.36 19.18 50.38 18.95 50.37 18.71L50.37 18L52.01 18L52.01 18.65C52.06 19.29 51.86 19.93 51.45 20.46C51.07 20.89 50.43 21.11 49.48 21.11C48.54 21.11 47.82 20.88 47.42 20.4Z" fill="#AFB1B8" fill-opacity="1.000000" fill-rule="nonzero"/>
	<path id="Vector" d="M54.25 20.43C53.84 19.98 53.63 19.33 53.63 18.46L53.63 15.43C53.63 14.58 53.84 13.93 54.25 13.49C54.67 13.05 55.36 12.83 56.33 12.83C57.3 12.83 57.99 13.05 58.4 13.49C58.81 13.93 59.03 14.58 59.03 15.43L59.03 18.46C59.03 19.32 58.81 19.98 58.39 20.43C57.97 20.88 57.29 21.11 56.33 21.11C55.38 21.11 54.67 20.88 54.25 20.43ZM57.1 19.71C57.24 19.42 57.31 19.12 57.29 18.81L57.29 15.09C57.31 14.79 57.25 14.49 57.1 14.21C57.02 14.11 56.9 14.02 56.76 13.97C56.63 13.92 56.48 13.9 56.33 13.92C56.18 13.9 56.03 13.92 55.9 13.97C55.76 14.03 55.64 14.11 55.56 14.21C55.41 14.49 55.34 14.79 55.36 15.09L55.36 18.83C55.34 19.13 55.41 19.44 55.56 19.72C55.66 19.82 55.77 19.89 55.91 19.95C56.04 20 56.18 20.02 56.33 20.02C56.47 20.02 56.62 20 56.75 19.95C56.88 19.89 57 19.82 57.1 19.72L57.1 19.71Z" fill="#AFB1B8" fill-opacity="1.000000" fill-rule="nonzero"/>
	<path id="Vector" d="M61 12.92L62.77 12.92L64.09 18.51L65.45 12.92L67.17 12.92L67.34 21L66.07 21L65.94 15.38L64.63 21L63.61 21L62.25 15.36L62.12 21L60.84 21L61 12.92Z" fill="#AFB1B8" fill-opacity="1.000000" fill-rule="nonzero"/>
	<path id="Vector" d="M69.33 12.92L72.08 12.92C73.66 12.92 74.46 13.68 74.46 15.21C74.46 16.68 73.62 17.41 71.95 17.41L71.01 17.41L71.01 21L69.32 21L69.33 12.92ZM71.68 16.37C71.84 16.39 72.01 16.38 72.18 16.33C72.34 16.29 72.49 16.21 72.61 16.12C72.81 15.84 72.89 15.52 72.85 15.2C72.86 14.96 72.84 14.71 72.77 14.47C72.75 14.39 72.71 14.31 72.65 14.25C72.59 14.18 72.52 14.13 72.43 14.09C72.2 13.99 71.94 13.94 71.68 13.96L71.02 13.96L71.02 16.37L71.68 16.37Z" fill="#AFB1B8" fill-opacity="1.000000" fill-rule="nonzero"/>
	<path id="Vector" d="M76.9 12.92L78.73 12.92L80.6 21L79.02 21L78.65 19.13L77.02 19.13L76.64 21L75.03 21L76.9 12.92ZM78.46 18.2L77.83 14.81L77.19 18.2L78.46 18.2Z" fill="#AFB1B8" fill-opacity="1.000000" fill-rule="nonzero"/>
	<path id="Vector" d="M82.11 12.92L83.3 12.92L85.58 17.53L85.58 12.92L86.99 12.92L86.99 21L85.86 21L83.57 16.19L83.57 21L82.11 21L82.11 12.92Z" fill="#AFB1B8" fill-opacity="1.000000" fill-rule="nonzero"/>
	<path id="Vector" d="M90.29 17.92L88.4 12.93L89.99 12.93L91.15 16.13L92.23 12.93L93.79 12.93L91.92 17.92L91.92 21L90.29 21L90.29 17.92Z" fill="#AFB1B8" fill-opacity="1.000000" fill-rule="nonzero"/>
	<path id="Vector" d="M50.04 24.53L50.04 24.95L48.66 24.95L48.66 28.23L48.08 28.23L48.08 24.95L46.68 24.95L46.68 24.53L50.04 24.53Z" fill="#AFB1B8" fill-opacity="1.000000" fill-rule="nonzero"/>
	<path id="Vector" d="M54.39 28.23L53.94 28.23C53.89 28.23 53.85 28.22 53.81 28.2C53.78 28.17 53.75 28.14 53.74 28.11L53.34 27.23L51.42 27.23L51.01 28.11C51 28.15 50.98 28.18 50.95 28.21C50.92 28.24 50.87 28.25 50.83 28.25L50.38 28.25L52.08 24.54L52.67 24.54L54.39 28.23ZM51.57 26.86L53.18 26.86L52.5 25.35C52.45 25.23 52.41 25.12 52.37 25C52.35 25.07 52.33 25.14 52.31 25.2L52.25 25.35L51.57 26.86Z" fill="#AFB1B8" fill-opacity="1.000000" fill-rule="nonzero"/>
	<path id="Vector" d="M57.32 27.87C57.42 27.87 57.53 27.87 57.64 27.87C57.73 27.86 57.82 27.84 57.91 27.82C57.99 27.81 58.07 27.78 58.15 27.76C58.23 27.73 58.3 27.7 58.38 27.66L58.38 26.83L57.7 26.83C57.68 26.83 57.67 26.83 57.65 26.83C57.63 26.82 57.62 26.81 57.61 26.8C57.6 26.79 57.59 26.78 57.58 26.77C57.58 26.76 57.57 26.75 57.57 26.74L57.57 26.45L58.89 26.45L58.89 27.87C58.78 27.94 58.67 28 58.55 28.05C58.43 28.1 58.31 28.14 58.18 28.17C58.04 28.21 57.89 28.23 57.75 28.25C57.59 28.26 57.42 28.27 57.26 28.27C56.96 28.27 56.67 28.23 56.4 28.13C56.14 28.05 55.91 27.91 55.72 27.75C55.53 27.58 55.38 27.38 55.28 27.16C55.17 26.91 55.12 26.65 55.12 26.39C55.12 26.13 55.17 25.87 55.28 25.62C55.38 25.4 55.52 25.2 55.72 25.03C55.91 24.86 56.14 24.73 56.4 24.65C56.69 24.55 57 24.51 57.31 24.51C57.46 24.51 57.62 24.52 57.78 24.54C57.92 24.56 58.05 24.59 58.18 24.64C58.3 24.67 58.42 24.72 58.52 24.78C58.63 24.84 58.73 24.9 58.82 24.98L58.65 25.2C58.64 25.22 58.62 25.24 58.6 25.25C58.58 25.27 58.55 25.27 58.52 25.27C58.48 25.27 58.45 25.26 58.42 25.25C58.37 25.22 58.31 25.19 58.25 25.16C58.18 25.12 58.1 25.08 58.02 25.06C57.92 25.02 57.82 24.99 57.71 24.98C57.57 24.95 57.42 24.94 57.28 24.94C57.05 24.94 56.83 24.98 56.62 25.05C56.43 25.11 56.26 25.21 56.12 25.34C55.98 25.47 55.88 25.63 55.81 25.8C55.66 26.2 55.66 26.63 55.81 27.03C55.88 27.21 56 27.37 56.15 27.5C56.29 27.63 56.46 27.73 56.64 27.79C56.86 27.86 57.09 27.88 57.32 27.87Z" fill="#AFB1B8" fill-opacity="1.000000" fill-rule="nonzero"/>
	<path id="Vector" d="M62.73 27.81L64.59 27.81L64.59 28.23L62.16 28.23L62.16 24.53L62.74 24.53L62.73 27.81Z" fill="#AFB1B8" fill-opacity="1.000000" fill-rule="nonzero"/>
	<path id="Vector" d="M66.52 28.23L65.93 28.23L65.93 24.53L66.52 24.53L66.52 28.23Z" fill="#AFB1B8" fill-opacity="1.000000" fill-rule="nonzero"/>
	<path id="Vector" d="M68.68 24.54C68.71 24.56 68.74 24.58 68.76 24.61L71.25 27.4C71.24 27.36 71.24 27.32 71.25 27.27C71.25 27.23 71.25 27.19 71.25 27.15L71.25 24.51L71.75 24.51L71.75 28.23L71.46 28.23C71.42 28.23 71.38 28.23 71.34 28.21C71.3 28.19 71.27 28.17 71.24 28.14L68.76 25.35C68.76 25.39 68.76 25.44 68.76 25.48C68.76 25.52 68.76 25.56 68.76 25.59L68.76 28.23L68.28 28.23L68.28 24.53L68.58 24.53C68.61 24.53 68.65 24.53 68.68 24.54Z" fill="#AFB1B8" fill-opacity="1.000000" fill-rule="nonzero"/>
	<path id="Vector" d="M76.03 24.53L76.03 24.93L73.97 24.93L73.97 26.16L75.64 26.16L75.64 26.55L73.97 26.55L73.97 27.81L76.03 27.81L76.03 28.22L73.37 28.22L73.37 24.53L76.03 24.53Z" fill="#AFB1B8" fill-opacity="1.000000" fill-rule="nonzero"/>
	<path id="Vector" d="M15.16 1.65L40.95 7.97L40.95 30.13L15.16 23.81L15.16 1.65ZM13.5 -0.24L13.5 24.89L42.6 32.02L42.6 6.9L13.5 -0.24Z" fill="#AFB1B8" fill-opacity="1.000000" fill-rule="nonzero"/>
	<path id="Vector" d="M29.1 43.69L0 36.55L0 11.42L29.1 18.56L29.1 43.69Z" fill="#AFB1B8" fill-opacity="1.000000" fill-rule="nonzero"/>
	<path id="Vector" d="M13.98 1.37L39.44 7.61L28.62 16.96L3.15 10.71L13.98 1.37ZM13.5 -0.24L0 11.42L29.1 18.56L42.6 6.9L13.5 -0.24Z" fill="#AFB1B8" fill-opacity="1.000000" fill-rule="nonzero"/>
	<path id="Vector" d="M30.74 42.27L42.6 32.03L30.74 29.11L30.74 42.27Z" fill="#AFB1B8" fill-opacity="1.000000" fill-rule="nonzero"/>
</svg>
