<svg width="20.000000" height="20.000000" viewBox="0 0 20 20" fill="none" xmlns="http://www.w3.org/2000/svg" xmlns:xlink="http://www.w3.org/1999/xlink">
	<desc>
			Created with Pixso.
	</desc>
	<defs>
		<clipPath id="clip13_49">
			<rect id="twitter 1" width="20.000000" height="20.000000" fill="white" fill-opacity="0"/>
		</clipPath>
	</defs>
	<rect id="twitter 1" width="20.000000" height="20.000000" fill="#FFFFFF" fill-opacity="0"/>
	<g clip-path="url(#clip13_49)">
		<path id="Vector" d="M20 3.79C19.25 4.12 18.46 4.34 17.63 4.44C18.48 3.93 19.13 3.14 19.44 2.17C18.64 2.65 17.77 2.98 16.84 3.17C16.08 2.37 15.01 1.87 13.84 1.87C11.57 1.87 9.74 3.71 9.74 5.97C9.74 6.3 9.77 6.61 9.84 6.91C6.43 6.74 3.41 5.11 1.39 2.62C1.03 3.23 0.83 3.93 0.83 4.69C0.83 6.11 1.56 7.37 2.65 8.1C1.99 8.09 1.34 7.89 0.79 7.59C0.79 7.6 0.79 7.62 0.79 7.64C0.79 9.63 2.22 11.29 4.08 11.67C3.75 11.76 3.38 11.8 3.01 11.8C2.74 11.8 2.48 11.79 2.23 11.73C2.76 13.36 4.27 14.55 6.06 14.59C4.67 15.68 2.89 16.34 0.98 16.34C0.64 16.34 0.32 16.32 0 16.28C1.81 17.45 3.96 18.12 6.29 18.12C13.83 18.12 17.95 11.87 17.95 6.45C17.95 6.27 17.95 6.1 17.94 5.92C18.75 5.34 19.44 4.62 20 3.79Z" fill="#AFB1B8" fill-opacity="1.000000" fill-rule="nonzero"/>
	</g>
</svg>
