<svg width="41.000000" height="47.000000" viewBox="0 0 41 47" fill="none" xmlns="http://www.w3.org/2000/svg" xmlns:xlink="http://www.w3.org/1999/xlink">
	<desc>
			Created with Pixso.
	</desc>
	<defs/>
	<path id="Union" d="M6 0L13.0078 6.63416L0 6.62646L0 38.8137L34 38.8137L34 26.5071L41 33.1338L41 0L6 0ZM33.6924 6.91797L33.6924 25.7284L13.8226 6.91797L33.6924 6.91797ZM27.5231 34.1055L5.38007 34.1055L5.38007 12.4579L6.94531 12.4579L6.94531 32.6396L27.5231 32.6396L27.5231 34.1055ZM15.8701 44.9517C15.7806 45.0884 15.7358 45.2389 15.7358 45.4033C15.7358 45.7028 15.8408 45.9462 16.0508 46.1333C16.2624 46.3188 16.5439 46.4116 16.8955 46.4116Q17.2908 46.4116 17.6038 46.2511Q17.7083 46.1975 17.8037 46.126L18.0039 46.3628L18.6924 46.3628L18.1699 45.7451Q18.4775 45.3252 18.4775 44.6685L17.9624 44.6685C17.9624 44.9077 17.9128 45.125 17.8135 45.3203L17.1274 44.5098L17.3691 44.334C17.54 44.2103 17.6629 44.0865 17.7378 43.9629C17.8127 43.8375 17.8501 43.7008 17.8501 43.5527Q17.8501 43.3844 17.7879 43.2435Q17.7257 43.1024 17.6011 42.9888C17.4367 42.8358 17.2251 42.7593 16.9663 42.7593C16.6798 42.7593 16.452 42.8407 16.2827 43.0034C16.1134 43.1646 16.0288 43.3843 16.0288 43.6626C16.0288 43.7765 16.0557 43.8945 16.1094 44.0166C16.1647 44.1387 16.2616 44.2867 16.3999 44.4609C16.1362 44.6498 15.9596 44.8134 15.8701 44.9517ZM22.623 46.0942C22.8672 45.881 23.0072 45.5848 23.043 45.2056L22.4277 45.2056C22.3952 45.4595 22.3179 45.641 22.1958 45.75C22.0737 45.859 21.8914 45.9136 21.6489 45.9136C21.3836 45.9136 21.1818 45.8126 21.0435 45.6108Q20.8384 45.3081 20.8384 44.7319L20.8384 44.417C20.8416 44.0377 20.9149 43.7505 21.0581 43.5552C21.203 43.3583 21.4097 43.2598 21.6782 43.2598C21.9093 43.2598 22.0843 43.3168 22.2031 43.4307C22.3236 43.543 22.3984 43.7269 22.4277 43.9824L23.043 43.9824C23.0039 43.5934 22.8647 43.2924 22.6255 43.0791C22.3862 42.8658 22.0705 42.7593 21.6782 42.7593C21.3869 42.7593 21.1297 42.8285 20.9067 42.9668C20.6854 43.1051 20.5153 43.3021 20.3965 43.5576C20.2777 43.8131 20.2183 44.1085 20.2183 44.4438L20.2183 44.7759C20.2231 45.103 20.2842 45.3903 20.4014 45.6377C20.5186 45.8851 20.6846 46.0763 20.8994 46.2114C21.1159 46.3448 21.3657 46.4116 21.6489 46.4116C22.0542 46.4116 22.3789 46.3058 22.623 46.0942ZM26.2534 45.5962C26.3739 45.3325 26.4341 45.0265 26.4341 44.6782L26.4341 44.4805C26.4325 44.1338 26.3706 43.8302 26.2485 43.5698Q26.1074 43.2668 25.8749 43.0741Q25.8058 43.0168 25.7285 42.9692C25.5055 42.8292 25.2492 42.7593 24.9595 42.7593C24.6698 42.7593 24.4126 42.8301 24.188 42.9717Q24.1279 43.0094 24.0725 43.0532Q23.8202 43.2532 23.668 43.5796C23.5459 43.8448 23.4849 44.1509 23.4849 44.4976L23.4849 44.6978C23.4865 45.038 23.5483 45.3383 23.6704 45.5986C23.7941 45.859 23.9683 46.0601 24.1929 46.2017C24.4191 46.3417 24.6763 46.4116 24.9644 46.4116C25.2557 46.4116 25.5128 46.3417 25.7358 46.2017C25.9604 46.0601 26.133 45.8583 26.2534 45.5962ZM10.6089 42.8081L9.79102 44.4927L8.97314 42.8081L8.28711 42.8081L9.48096 45.0542L9.48096 46.3628L10.1011 46.3628L10.1011 45.0542L11.2925 42.8081L10.6089 42.8081ZM11.6367 46.3628L11.9248 45.5352L13.3018 45.5352L13.5923 46.3628L14.2368 46.3628L12.8916 42.8081L12.3374 42.8081L10.9946 46.3628L11.6367 46.3628ZM16.8369 44.1631C16.6693 43.9564 16.5854 43.7847 16.5854 43.6479C16.5854 43.5292 16.6196 43.4307 16.688 43.3525C16.7563 43.2744 16.8483 43.2354 16.9639 43.2354C17.0713 43.2354 17.16 43.2687 17.23 43.3354C17.3 43.4005 17.335 43.4795 17.335 43.5723C17.335 43.7123 17.2845 43.827 17.1836 43.9165L17.1079 43.9775L16.8369 44.1631ZM25.5918 43.5869C25.7415 43.7969 25.8164 44.0988 25.8164 44.4927L25.8164 44.6782C25.8164 45.0786 25.7423 45.3829 25.5942 45.5913C25.4478 45.7997 25.2378 45.9038 24.9644 45.9038C24.6942 45.9038 24.4826 45.7972 24.3296 45.584C24.1782 45.3707 24.1025 45.0688 24.1025 44.6782L24.1025 44.4731C24.1058 44.0907 24.1823 43.7953 24.332 43.5869C24.4834 43.377 24.6925 43.272 24.9595 43.272C25.2329 43.272 25.4437 43.377 25.5918 43.5869ZM12.6133 43.5625L13.1284 45.0371L12.0981 45.0371L12.6133 43.5625ZM17.4741 45.7378C17.3 45.8712 17.1128 45.938 16.9126 45.938Q16.6965 45.938 16.5512 45.8365Q16.5176 45.8131 16.4878 45.7842C16.382 45.6816 16.3291 45.5482 16.3291 45.3838C16.3291 45.1934 16.4268 45.024 16.6221 44.876L16.6978 44.8223L17.4741 45.7378Z" clip-rule="evenodd" fill="#AFB1B8" fill-opacity="1.000000" fill-rule="evenodd"/>
</svg>
